<?xml version="1.0" encoding="UTF-8" standalone="no"?>
<!-- Created with Inkscape (http://www.inkscape.org/) -->

<svg
   width="4.0220413mm"
   height="4.0909648mm"
   viewBox="0 0 4.0220413 4.0909648"
   version="1.1"
   id="svg1"
   xml:space="preserve"
   sodipodi:docname="bag-icon.svg"
   inkscape:export-filename="more-icon.svg"
   inkscape:export-xdpi="96"
   inkscape:export-ydpi="96"
   inkscape:version="1.4.3 (fcd0343856, 2026-01-01)"
   xmlns:inkscape="http://www.inkscape.org/namespaces/inkscape"
   xmlns:sodipodi="http://sodipodi.sourceforge.net/DTD/sodipodi-0.dtd"
   xmlns="http://www.w3.org/2000/svg"
   xmlns:svg="http://www.w3.org/2000/svg"><sodipodi:namedview
     id="namedview1"
     pagecolor="#505050"
     bordercolor="#eeeeee"
     borderopacity="1"
     inkscape:showpageshadow="0"
     inkscape:pageopacity="0"
     inkscape:pagecheckerboard="0"
     inkscape:deskcolor="#505050"
     inkscape:document-units="mm"
     inkscape:zoom="19.690375"
     inkscape:cx="7.5417557"
     inkscape:cy="2.1584149"
     inkscape:window-width="1366"
     inkscape:window-height="713"
     inkscape:window-x="0"
     inkscape:window-y="27"
     inkscape:window-maximized="1"
     inkscape:current-layer="layer1" /><defs
     id="defs1" /><g
     id="layer1"
     transform="translate(-746.07508,-207.21159)"><g
       id="g2"
       style="opacity:0.2548714"><path
         style="opacity:1;fill:#000000;fill-opacity:1;stroke-width:1.265"
         d="m 746.48866,208.33659 c -0.3314,0.22489 -0.41192,1.99119 -0.41359,2.96596 h 4.02201 c -0.0247,-0.97966 -0.0193,-2.86035 -0.31456,-2.9435 z"
         id="path1" /><path
         id="path2"
         style="opacity:1;fill:#000000;fill-opacity:1;stroke-width:1.265"
         d="m 748.18896,207.21164 c -0.42714,-0.005 -0.85626,0.38099 -0.94413,1.17822 l 0.28887,-0.002 c 0.1546,-1.12461 1.1832,-1.18374 1.25522,-0.0196 l -0.93741,0.0176 1.26866,-0.009 c -0.0791,-0.76495 -0.50407,-1.16017 -0.93121,-1.16479 z" /></g><g
       id="g3"
       transform="translate(0,-0.06837234)"
       style="opacity:0.29039353;fill:#000000"><g
         id="g4"
         style="fill:#000000"><path
           style="opacity:1;fill:#000000;stroke-width:0.943406"
           d="m 746.07825,208.69519 h 4.01839 v 0.20386 h -4.01839 z"
           id="path3" /><path
           style="fill:#000000;stroke-width:0.943406"
           d="m 746.07842,210.11389 h 4.01839 v 0.20386 h -4.01839 z"
           id="path3-9" /></g></g><g
       id="g5"><path
         style="fill:#ffffff;stroke-width:0.943406"
         d="m 746.07507,209.31683 h 4.01839 v 0.20386 h -4.01839 z"
         id="path3-9-7" /><path
         style="fill:#ffffff;stroke-width:0.951892"
         d="m 748.24956,207.21282 5.9e-4,4.09101 -0.20386,3e-5 -5.9e-4,-4.09101 z"
         id="path3-9-7-8" /></g></g></svg>
