<?xml version="1.0" encoding="UTF-8" standalone="no"?>
<!-- Created with Inkscape (http://www.inkscape.org/) -->

<svg
   width="3.8501687mm"
   height="3.8464062mm"
   viewBox="0 0 3.8501687 3.8464062"
   version="1.1"
   id="svg1"
   xml:space="preserve"
   xmlns="http://www.w3.org/2000/svg"
   xmlns:svg="http://www.w3.org/2000/svg"><defs
     id="defs1" /><g
     id="layer1"
     transform="translate(-174.84824,-117.67499)"><path
       id="path1"
       style="opacity:1;fill:#000000;stroke-width:1.08136"
       d="m 176.48018,117.67499 c -0.90136,-1.6e-4 -1.6321,0.73058 -1.63194,1.63194 1.3e-4,0.90116 0.73078,1.63158 1.63194,1.63142 0.90096,-1.3e-4 1.6313,-0.73046 1.63143,-1.63142 1.6e-4,-0.90116 -0.73027,-1.63181 -1.63143,-1.63194 z m -0.0184,0.17397 c 0.76722,-7e-5 1.45525,0.66182 1.45513,1.45497 -1.5e-4,0.79294 -0.67866,1.44648 -1.44569,1.44641 -0.76703,7e-5 -1.43611,-0.62515 -1.43626,-1.41809 -1.2e-4,-0.79315 0.6596,-1.48336 1.42682,-1.48329 z" /><path
       style="opacity:1;fill:#000000;stroke-width:1.265"
       d="m 177.47658,120.53908 0.97565,0.98231 0.24618,-0.19694 -0.99879,-0.99176 z"
       id="path2" /></g></svg>
